<svg width="513" height="647" viewBox="0 0 513 647" fill="none" xmlns="http://www.w3.org/2000/svg">
<g filter="url(#filter0_d_3_34)">
<path fill-rule="evenodd" clip-rule="evenodd" d="M444 98H509V116.995V117.786V541.214L509 560.209L509 561H444V541.214H484L484 117.786H444V98Z" fill="#EAEAEA"/>
</g>
<g filter="url(#filter1_d_3_34)">
<path fill-rule="evenodd" clip-rule="evenodd" d="M69 561L4 561L3.99999 542.005L4 541.214L4.00003 117.786L4.00004 98.7915L4.00003 98L69 98L69 117.786L29 117.786L29 541.214L69 541.214L69 561Z" fill="#EAEAEA"/>
</g>
<g filter="url(#filter2_d_3_34)">
<path fill-rule="evenodd" clip-rule="evenodd" d="M346.5 497.5C344.1 497.5 208.5 354.5 141 283V552C158.167 588.167 208.5 655.3 272.5 634.5C275.633 633.482 278.639 632.333 281.523 631.066C266.637 587.97 246.782 543.029 229.276 503.403C222.126 487.22 215.368 471.923 209.5 458L300.376 619.95C351.696 580.759 349.098 497.5 346.5 497.5Z" fill="#EAEAEA"/>
</g>
<g filter="url(#filter3_d_3_34)">
<path fill-rule="evenodd" clip-rule="evenodd" d="M163.141 140.915C165.541 140.915 301.141 283.915 368.641 355.415L368.641 86.415C351.474 50.2484 301.141 -16.885 237.141 3.91503C234.007 4.93337 231.001 6.08208 228.118 7.34941C243.004 50.4451 262.858 95.3861 280.365 135.012C287.515 151.195 294.273 166.492 300.141 180.415L209.265 18.4646C157.944 57.6563 160.542 140.915 163.141 140.915Z" fill="#EAEAEA"/>
</g>
<defs>
<filter id="filter0_d_3_34" x="440" y="98" width="73" height="471" filterUnits="userSpaceOnUse" color-interpolation-filters="sRGB">
<feFlood flood-opacity="0" result="BackgroundImageFix"/>
<feColorMatrix in="SourceAlpha" type="matrix" values="0 0 0 0 0 0 0 0 0 0 0 0 0 0 0 0 0 0 127 0" result="hardAlpha"/>
<feOffset dy="4"/>
<feGaussianBlur stdDeviation="2"/>
<feComposite in2="hardAlpha" operator="out"/>
<feColorMatrix type="matrix" values="0 0 0 0 0 0 0 0 0 0 0 0 0 0 0 0 0 0 0.25 0"/>
<feBlend mode="normal" in2="BackgroundImageFix" result="effect1_dropShadow_3_34"/>
<feBlend mode="normal" in="SourceGraphic" in2="effect1_dropShadow_3_34" result="shape"/>
</filter>
<filter id="filter1_d_3_34" x="0" y="98" width="73" height="471" filterUnits="userSpaceOnUse" color-interpolation-filters="sRGB">
<feFlood flood-opacity="0" result="BackgroundImageFix"/>
<feColorMatrix in="SourceAlpha" type="matrix" values="0 0 0 0 0 0 0 0 0 0 0 0 0 0 0 0 0 0 127 0" result="hardAlpha"/>
<feOffset dy="4"/>
<feGaussianBlur stdDeviation="2"/>
<feComposite in2="hardAlpha" operator="out"/>
<feColorMatrix type="matrix" values="0 0 0 0 0 0 0 0 0 0 0 0 0 0 0 0 0 0 0.25 0"/>
<feBlend mode="normal" in2="BackgroundImageFix" result="effect1_dropShadow_3_34"/>
<feBlend mode="normal" in="SourceGraphic" in2="effect1_dropShadow_3_34" result="shape"/>
</filter>
<filter id="filter2_d_3_34" x="137" y="283" width="214.641" height="363.415" filterUnits="userSpaceOnUse" color-interpolation-filters="sRGB">
<feFlood flood-opacity="0" result="BackgroundImageFix"/>
<feColorMatrix in="SourceAlpha" type="matrix" values="0 0 0 0 0 0 0 0 0 0 0 0 0 0 0 0 0 0 127 0" result="hardAlpha"/>
<feOffset dy="4"/>
<feGaussianBlur stdDeviation="2"/>
<feComposite in2="hardAlpha" operator="out"/>
<feColorMatrix type="matrix" values="0 0 0 0 0 0 0 0 0 0 0 0 0 0 0 0 0 0 0.25 0"/>
<feBlend mode="normal" in2="BackgroundImageFix" result="effect1_dropShadow_3_34"/>
<feBlend mode="normal" in="SourceGraphic" in2="effect1_dropShadow_3_34" result="shape"/>
</filter>
<filter id="filter3_d_3_34" x="158" y="0" width="214.641" height="363.415" filterUnits="userSpaceOnUse" color-interpolation-filters="sRGB">
<feFlood flood-opacity="0" result="BackgroundImageFix"/>
<feColorMatrix in="SourceAlpha" type="matrix" values="0 0 0 0 0 0 0 0 0 0 0 0 0 0 0 0 0 0 127 0" result="hardAlpha"/>
<feOffset dy="4"/>
<feGaussianBlur stdDeviation="2"/>
<feComposite in2="hardAlpha" operator="out"/>
<feColorMatrix type="matrix" values="0 0 0 0 0 0 0 0 0 0 0 0 0 0 0 0 0 0 0.25 0"/>
<feBlend mode="normal" in2="BackgroundImageFix" result="effect1_dropShadow_3_34"/>
<feBlend mode="normal" in="SourceGraphic" in2="effect1_dropShadow_3_34" result="shape"/>
</filter>
</defs>
</svg>
